{
  "accessors": [
    {
      "bufferView": 2,
      "componentType": 5126,
      "count": 2997,
      "max": [
        2.4178102016448975,
        2.4178099632263184,
        4.8133273124694824
      ],
      "min": [
        -2.4178102016448975,
        -2.4178111553192139,
        -4.5180888175964355
      ],
      "type": "VEC3"
    },
    {
      "bufferView": 2,
      "byteOffset": 35964,
      "componentType": 5126,
      "count": 2997,
      "max": [
        0.99879962205886841,
        0.99879962205886841,
        1
      ],
      "min": [
        -0.99879962205886841,
        -0.99879962205886841,
        -1
      ],
      "type": "VEC3"
    },
    {
      "bufferView": 3,
      "componentType": 5126,
      "count": 2997,
      "max": [
        1,
        0.99999606609344482,
        0.99761497974395752,
        1
      ],
      "min": [
        -1,
        -0.99999606609344482,
        -0.99763333797454834,
        1
      ],
      "type": "VEC4"
    },
    {
      "bufferView": 1,
      "componentType": 5126,
      "count": 2997,
      "max": [
        0.99703562259674072,
        0.98382943868637085
      ],
      "min": [
        0.00095501542091369629,
        0.0025791823863983154
      ],
      "type": "VEC2"
    },
    {
      "bufferView": 1,
      "byteOffset": 23976,
      "componentType": 5126,
      "count": 2997,
      "max": [
        0.99703562259674072,
        0.98382943868637085
      ],
      "min": [
        0.00095501542091369629,
        0.0025791823863983154
      ],
      "type": "VEC2"
    },
    {
      "bufferView": 0,
      "componentType": 5125,
      "count": 8682,
      "max": [
        2996
      ],
      "min": [
        0
      ],
      "type": "SCALAR"
    }
  ],
  "asset": {
    "extras": {
      "author": "Chris Sweetwood (https://sketchfab.com/ChrisSweetwood)",
      "license": "CC-BY-SA-4.0 (http://creativecommons.org/licenses/by-sa/4.0/)",
      "source": "https://sketchfab.com/3d-models/soda-can-high-poly-08be81ca5fa74718b5d95ac6a5a928f2",
      "title": "Soda Can (High Poly)"
    },
    "generator": "Sketchfab-9.39.0",
    "version": "2.0"
  },
  "bufferViews": [
    {
      "buffer": 0,
      "byteLength": 34728,
      "byteOffset": 0,
      "name": "floatBufferViews",
      "target": 34963
    },
    {
      "buffer": 0,
      "byteLength": 47952,
      "byteOffset": 34728,
      "byteStride": 8,
      "name": "floatBufferViews",
      "target": 34962
    },
    {
      "buffer": 0,
      "byteLength": 71928,
      "byteOffset": 82680,
      "byteStride": 12,
      "name": "floatBufferViews",
      "target": 34962
    },
    {
      "buffer": 0,
      "byteLength": 47952,
      "byteOffset": 154608,
      "byteStride": 16,
      "name": "floatBufferViews",
      "target": 34962
    }
  ],
  "buffers": [
    {
      "byteLength": 202560,
      "uri": "scene.bin"
    }
  ],
  "images": [
    {
      "uri": "textures/CanMat_baseColor.png"
    },
    {
      "uri": "textures/CanMat_metallicRoughness.png"
    },
    {
      "uri": "textures/CanMat_normal.png"
    }
  ],
  "materials": [
    {
      "doubleSided": true,
      "name": "CanMat",
      "normalTexture": {
        "index": 2,
        "scale": 1,
        "texCoord": 0
      },
      "occlusionTexture": {
        "index": 1,
        "strength": 1,
        "texCoord": 0
      },
      "pbrMetallicRoughness": {
        "baseColorFactor": [
          1,
          1,
          1,
          1
        ],
        "baseColorTexture": {
          "index": 0,
          "texCoord": 0
        },
        "metallicFactor": 1,
        "metallicRoughnessTexture": {
          "index": 1,
          "texCoord": 0
        },
        "roughnessFactor": 0.23275662890879134
      }
    }
  ],
  "meshes": [
    {
      "name": "Cylinder.001_CanMat_0",
      "primitives": [
        {
          "attributes": {
            "NORMAL": 1,
            "POSITION": 0,
            "TANGENT": 2,
            "TEXCOORD_0": 3,
            "TEXCOORD_1": 4
          },
          "indices": 5,
          "material": 0,
          "mode": 4
        }
      ]
    }
  ],
  "nodes": [
    {
      "children": [
        1
      ],
      "name": "RootNode (gltf orientation matrix)",
      "rotation": [
        -0.70710678118654746,
        -0,
        -0,
        0.70710678118654757
      ]
    },
    {
      "children": [
        2
      ],
      "name": "RootNode (model correction matrix)"
    },
    {
      "children": [
        3
      ],
      "matrix": [
        1,
        0,
        0,
        0,
        0,
        0,
        1,
        0,
        0,
        -1,
        0,
        0,
        0,
        0,
        0,
        1
      ],
      "name": "971c8f56b00b4751b6c873cc5758169b.fbx"
    },
    {
      "children": [
        4
      ],
      "name": "RootNode"
    },
    {
      "children": [
        5
      ],
      "matrix": [
        35.368083953857422,
        0,
        0,
        0,
        0,
        -5.7621922665497822e-06,
        -35.368083953856953,
        0,
        0,
        35.368083953856953,
        -5.7621922665497822e-06,
        0,
        0,
        0,
        0,
        1
      ],
      "name": "Cylinder.001"
    },
    {
      "mesh": 0,
      "name": "Cylinder.001_CanMat_0"
    }
  ],
  "samplers": [
    {
      "magFilter": 9729,
      "minFilter": 9987,
      "wrapS": 10497,
      "wrapT": 10497
    }
  ],
  "scene": 0,
  "scenes": [
    {
      "name": "OSG_Scene",
      "nodes": [
        0
      ]
    }
  ],
  "textures": [
    {
      "sampler": 0,
      "source": 0
    },
    {
      "sampler": 0,
      "source": 1
    },
    {
      "sampler": 0,
      "source": 2
    }
  ]
}

